####
#
# OBJ File Generated by Meshlab
#
####
# Object clip.obj
#
# Vertices: 16
# Faces: 24
#
####
vn 1.8076614 -1.5707966 1.2911863
v 7.9931965 -10.0000000 7.4177999
vn 1.2911865 1.5707961 -1.8076611
v 5.4931965 10.0000000 -7.5821991
vn 1.8076617 1.5707966 1.2911867
v 7.9931965 10.0000000 7.4177999
vn 1.2911865 -1.5707961 -1.8076614
v 5.4931965 -10.0000000 -7.5821991
vn -1.2911863 1.5707961 1.8076611
v 7.0068026 10.0000000 7.5821991
vn -1.2911865 -1.5707961 1.8076614
v 7.0068026 -10.0000000 7.5821991
vn -1.8076614 -1.5707966 -1.2911863
v 4.5068026 -10.0000000 -7.4177999
vn -1.8076617 1.5707966 -1.2911867
v 4.5068026 10.0000000 -7.4177999
vn -1.8076615 1.5707966 1.2911863
v -7.9931965 10.0000000 7.4177999
vn 1.2911863 -1.5707961 1.8076611
v -7.0068026 -10.0000000 7.5821991
vn 1.2911865 1.5707961 1.8076614
v -7.0068026 10.0000000 7.5821991
vn -1.8076617 -1.5707966 1.2911867
v -7.9931965 -10.0000000 7.4177999
vn -1.2911863 -1.5707961 -1.8076611
v -5.4931965 -10.0000000 -7.5821991
vn 1.8076615 1.5707966 -1.2911863
v -4.5068026 10.0000000 -7.4177999
vn 1.8076617 -1.5707966 -1.2911867
v -4.5068026 -10.0000000 -7.4177999
vn -1.2911865 1.5707961 -1.8076614
v -5.4931965 10.0000000 -7.5821991
# 16 vertices, 0 vertices normals

f 1//1 2//2 3//3
f 2//2 1//1 4//4
f 5//5 1//1 3//3
f 1//1 5//5 6//6
f 7//7 5//5 8//8
f 5//5 7//7 6//6
f 3//3 8//8 5//5
f 8//8 3//3 2//2
f 7//7 2//2 4//4
f 2//2 7//7 8//8
f 7//7 1//1 6//6
f 1//1 7//7 4//4
f 9//9 10//10 11//11
f 10//10 9//9 12//12
f 13//13 14//14 15//15
f 14//14 13//13 16//16
f 13//13 9//9 16//16
f 9//9 13//13 12//12
f 12//12 15//15 10//10
f 15//15 12//12 13//13
f 10//10 14//14 11//11
f 14//14 10//10 15//15
f 14//14 9//9 11//11
f 9//9 14//14 16//16
# 24 faces, 0 coords texture

# End of File
