####
#
# OBJ File Generated by Meshlab
#
####
# Object clip_0_gap.obj
#
# Vertices: 14
# Faces: 8
#
####
vn 0.9971993 0.0000000 -0.0747899
v 1.9985991 -10.0000000 9.9626045
vn 0.9971993 0.0000000 -0.0747899
v 0.4985991 10.0000000 -10.0373945
vn 0.9971993 0.0000000 -0.0747899
v 1.9985991 10.0000000 9.9626045
vn 0.9971993 0.0000000 -0.0747899
v 0.4985991 -10.0000000 -10.0373945
vn -0.9971993 0.0000000 0.0747899
v 1.0014000 10.0000000 10.0373945
vn -0.9971993 0.0000000 0.0747899
v 1.0014000 -10.0000000 10.0373945
vn 0.0000000 0.0000000 1.0000000
v 0.0000000 -10.0000000 -3.3146133
vn 0.0000000 0.0000000 1.0000000
v 0.0000000 10.0000000 -3.3146133
vn -0.9971993 0.0000000 -0.0747899
v -1.9985991 10.0000000 9.9626045
vn 0.9971993 0.0000000 0.0747899
v -1.0014000 10.0000000 10.0373945
vn -0.9971993 0.0000000 -0.0747899
v -0.4985991 10.0000000 -10.0373945
vn -0.9971993 0.0000000 -0.0747899
v -1.9985991 -10.0000000 9.9626045
vn 0.9971993 0.0000000 0.0747899
v -1.0014000 -10.0000000 10.0373945
vn -0.9971993 0.0000000 -0.0747899
v -0.4985991 -10.0000000 -10.0373945
# 14 vertices, 0 vertices normals

f 1//1 2//2 3//3
f 2//2 1//1 4//4
f 7//7 5//5 8//8
f 5//5 7//7 6//6
f 14//14 9//9 11//11
f 9//9 14//14 12//12
f 13//13 8//8 10//10
f 8//8 13//13 7//7
# 8 faces, 0 coords texture

# End of File
